<svg width="9" height="5" viewBox="0 0 9 5" fill="none" xmlns="http://www.w3.org/2000/svg">
<path fill-rule="evenodd" clip-rule="evenodd" d="M8.69612 1.35042L5.01671 4.79599C4.72623 5.068 4.14527 5.068 3.85479 4.79599L0.272217 1.35042C-0.0182626 1.07841 -0.115089 0.625042 0.17539 0.262352L0.272217 0.171679C0.659522 -0.00966653 0.950002 -0.100339 1.24048 0.171679C2.11192 0.987733 2.98336 1.80379 3.95162 2.71051C4.2421 2.98253 4.82306 2.98253 5.11354 2.71051C5.98498 1.80379 6.85641 0.987733 7.72785 0.171679C8.01833 -0.100339 8.30881 -0.00966653 8.69612 0.171679L8.79294 0.262352C9.08342 0.625042 9.08342 1.07841 8.69612 1.35042Z" fill="white"/>
</svg>
